<?xml version="1.0" encoding="UTF-8" standalone="no"?>
<!-- Created with Inkscape (http://www.inkscape.org/) -->

<svg
   width="139.6862mm"
   height="19.54561mm"
   viewBox="0 0 139.6862 19.54561"
   version="1.1"
   id="svg1"
   xmlns:inkscape="http://www.inkscape.org/namespaces/inkscape"
   xmlns:sodipodi="http://sodipodi.sourceforge.net/DTD/sodipodi-0.dtd"
   xmlns="http://www.w3.org/2000/svg"
   xmlns:svg="http://www.w3.org/2000/svg">
  <sodipodi:namedview
     id="namedview1"
     pagecolor="#ffffff"
     bordercolor="#000000"
     borderopacity="0.25"
     inkscape:showpageshadow="2"
     inkscape:pageopacity="0.0"
     inkscape:pagecheckerboard="0"
     inkscape:deskcolor="#d1d1d1"
     inkscape:document-units="mm" />
  <defs
     id="defs1" />
  <g
     inkscape:label="Layer 1"
     inkscape:groupmode="layer"
     id="layer1"
     transform="translate(-18.945948,-50.889876)">
    <path
       id="rect1"
       style="fill:#d400aa;stroke:#453748;stroke-width:0.668316"
       d="M 19.280106,51.224033 H 35.296921 V 65.975756 H 19.280106 Z" />
    <path
       id="rect1-5"
       style="fill:#ff2ad4;stroke:#453748;stroke-width:0.668316"
       d="M 22.659754,55.349606 H 38.676569 V 70.101328 H 22.659754 Z" />
    <path
       d="m 49.841108,55.469285 q 1.758248,0 2.884318,0.454379 1.145824,0.434623 1.698981,1.323625 0.553157,0.889002 0.553157,2.232383 0,1.126069 -0.414868,1.876782 -0.414867,0.750713 -1.066802,1.205091 -0.632179,0.434624 -1.343381,0.691446 l 3.872098,6.321792 h -2.074338 l -3.417719,-5.827902 h -2.805295 v 5.827902 H 45.949255 V 55.469285 Z m -0.09878,1.540937 h -2.015071 v 5.235234 h 2.113849 q 1.718737,0 2.508961,-0.671691 0.790224,-0.691446 0.790224,-2.015071 0,-0.928513 -0.375356,-1.48167 -0.355601,-0.553157 -1.106314,-0.809979 -0.750713,-0.256823 -1.916293,-0.256823 z m 12.347245,1.778004 q 1.363136,0 2.331161,0.592668 0.98778,0.592668 1.501425,1.679226 0.533402,1.066802 0.533402,2.508961 v 1.047047 h -7.250306 q 0.03951,1.797759 0.908758,2.746028 0.889002,0.928513 2.46945,0.928513 1.007536,0 1.778004,-0.1778 0.790224,-0.197556 1.619959,-0.553157 v 1.521181 q -0.809979,0.355601 -1.600203,0.513646 -0.790224,0.1778 -1.876782,0.1778 -1.501426,0 -2.667006,-0.612423 -1.145825,-0.612424 -1.79776,-1.817515 -0.632179,-1.224848 -0.632179,-2.983096 0,-1.738493 0.572912,-2.983096 0.592668,-1.244602 1.639715,-1.916293 1.066802,-0.67169 2.46945,-0.67169 z m -0.01976,1.422403 q -1.244602,0 -1.97556,0.80998 -0.711201,0.790224 -0.84949,2.212627 h 5.393278 q 0,-0.908758 -0.276578,-1.580448 -0.276578,-0.671691 -0.849491,-1.047047 -0.553157,-0.395112 -1.442159,-0.395112 z m 13.967194,6.440326 q 0,1.027291 -0.513646,1.718737 -0.513646,0.691446 -1.461914,1.047047 -0.948269,0.3556 -2.252139,0.3556 -1.106313,0 -1.916293,-0.1778 -0.790224,-0.1778 -1.402648,-0.49389 v -1.580448 q 0.63218,0.31609 1.521182,0.592668 0.908757,0.256823 1.83727,0.256823 1.323626,0 1.916294,-0.414868 0.592668,-0.434623 0.592668,-1.145825 0,-0.395112 -0.217312,-0.711201 -0.217312,-0.31609 -0.790224,-0.632179 -0.553157,-0.31609 -1.600204,-0.711202 -1.027291,-0.395112 -1.758248,-0.790224 -0.730957,-0.395112 -1.126069,-0.948269 -0.395112,-0.553157 -0.395112,-1.422403 0,-1.343381 1.086558,-2.074338 1.106313,-0.730957 2.884317,-0.730957 0.968025,0 1.79776,0.197556 0.849491,0.1778 1.580448,0.513645 l -0.592668,1.382892 q -0.67169,-0.276578 -1.402648,-0.474134 -0.730957,-0.197556 -1.501425,-0.197556 -1.066803,0 -1.639715,0.355601 -0.553157,0.335845 -0.553157,0.928513 0,0.434623 0.256823,0.750713 0.256823,0.296334 0.849491,0.592668 0.612423,0.276578 1.619959,0.67169 1.007536,0.375357 1.718737,0.770469 0.711202,0.395112 1.086558,0.968024 0.375357,0.553157 0.375357,1.402648 z m 11.418738,-7.665173 v 10.589001 h -1.422403 l -0.256823,-1.402647 h -0.07902 q -0.335845,0.553157 -0.869246,0.908757 -0.533402,0.355601 -1.165581,0.513646 -0.632179,0.1778 -1.323625,0.1778 -1.264358,0 -2.133605,-0.395112 -0.849491,-0.414867 -1.284114,-1.264358 -0.434623,-0.849491 -0.434623,-2.192872 v -6.934215 h 1.758248 v 6.815682 q 0,1.264358 0.572913,1.896537 0.572912,0.63218 1.778004,0.63218 1.185336,0 1.857026,-0.434624 0.691446,-0.454378 0.968025,-1.303869 0.296334,-0.869247 0.296334,-2.094094 V 58.985782 Z M 102.4305,58.788226 q 1.79776,0 2.68676,0.928513 0.889,0.908758 0.889,2.96334 v 6.894704 h -1.71874 v -6.815682 q 0,-1.244602 -0.5334,-1.876782 -0.51364,-0.632179 -1.61996,-0.632179 -1.54093,0 -2.212624,0.889002 -0.651935,0.889002 -0.651935,2.587984 v 5.847657 h -1.718737 v -6.815682 q 0,-0.829735 -0.237067,-1.382892 -0.237068,-0.572912 -0.711202,-0.84949 -0.474134,-0.276579 -1.224847,-0.276579 -1.066803,0 -1.679226,0.454379 -0.612424,0.434623 -0.889002,1.284114 -0.256823,0.849491 -0.256823,2.094094 v 5.492056 H 90.814204 V 58.985782 h 1.402648 l 0.256823,1.442159 h 0.09878 q 0.335845,-0.553157 0.809979,-0.908758 0.49389,-0.375356 1.086558,-0.553157 0.592668,-0.1778 1.224847,-0.1778 1.224848,0 2.034827,0.434623 0.829735,0.434623 1.205092,1.343381 h 0.09878 q 0.533401,-0.908758 1.442152,-1.343381 0.92852,-0.434623 1.95581,-0.434623 z m 16.06129,5.472301 q 0,1.323625 -0.3556,2.350916 -0.33584,1.007536 -0.98778,1.718738 -0.63218,0.711201 -1.56069,1.086558 -0.90876,0.3556 -2.03483,0.3556 -1.04705,0 -1.93605,-0.3556 -0.889,-0.375357 -1.54093,-1.086558 -0.65194,-0.711202 -1.0273,-1.718738 -0.3556,-1.027291 -0.3556,-2.350916 0,-1.758248 0.59267,-2.96334 0.59267,-1.224847 1.69898,-1.857026 1.10632,-0.651935 2.6275,-0.651935 1.44216,0 2.52871,0.651935 1.10632,0.632179 1.71874,1.857026 0.63218,1.205092 0.63218,2.96334 z m -8.00102,0 q 0,1.244603 0.31609,2.173116 0.33585,0.908758 1.02729,1.402648 0.69145,0.49389 1.75825,0.49389 1.0668,0 1.75825,-0.49389 0.69145,-0.49389 1.00754,-1.402648 0.33584,-0.928513 0.33584,-2.173116 0,-1.264358 -0.33584,-2.15336 -0.33585,-0.889002 -1.02729,-1.363137 -0.6717,-0.49389 -1.75825,-0.49389 -1.61996,0 -2.35092,1.066803 -0.73096,1.066802 -0.73096,2.943584 z m 10.49021,4.247454 q 0,-0.730957 0.35561,-1.027291 0.3556,-0.296334 0.84949,-0.296334 0.51364,0 0.86924,0.296334 0.37536,0.296334 0.37536,1.027291 0,0.711202 -0.37536,1.027291 -0.3556,0.31609 -0.86924,0.31609 -0.49389,0 -0.84949,-0.31609 -0.35561,-0.316089 -0.35561,-1.027291 z m 7.28981,1.066802 H 126.5323 V 54.560527 h 1.73849 z m 5.09694,-10.589001 v 10.589001 h -1.7385 V 58.985782 Z m -0.84949,-3.970876 q 0.39511,0 0.69144,0.276579 0.31609,0.256822 0.31609,0.829735 0,0.553157 -0.31609,0.829735 -0.29633,0.276578 -0.69144,0.276578 -0.43463,0 -0.73096,-0.276578 -0.29634,-0.276578 -0.29634,-0.829735 0,-0.572913 0.29634,-0.829735 0.29633,-0.276579 0.73096,-0.276579 z m 9.30488,3.77332 q 1.89653,0 2.86456,0.928513 0.96802,0.908758 0.96802,2.96334 v 6.894704 h -1.71873 v -6.77617 q 0,-1.284114 -0.57292,-1.916294 -0.57291,-0.632179 -1.79776,-0.632179 -1.75824,0 -2.42993,0.98778 -0.67169,0.98778 -0.67169,2.844807 v 5.492056 h -1.7385 V 58.985782 h 1.40265 l 0.25682,1.442159 h 0.0988 q 0.3556,-0.553157 0.86925,-0.908758 0.5334,-0.375356 1.16558,-0.553157 0.63218,-0.1778 1.30387,-0.1778 z m 8.83075,3.615275 q 0,0.316089 -0.0395,0.829735 -0.0198,0.513645 -0.0395,0.889002 h 0.079 q 0.11853,-0.158045 0.3556,-0.454379 0.23707,-0.296334 0.47414,-0.592668 0.25682,-0.31609 0.43462,-0.513646 l 3.37821,-3.575763 h 2.03482 l -4.28696,4.524032 4.5833,6.064969 h -2.0941 l -3.67454,-4.9389 -1.20509,1.047047 v 3.891853 h -1.71874 V 54.560527 h 1.71874 z"
       id="text1"
       style="font-size:19.7556px;font-family:'Droid Arabic Kufi';-inkscape-font-specification:'Droid Arabic Kufi';text-align:center;letter-spacing:0px;text-anchor:middle;fill:#221c24;stroke:#453748"
       aria-label="Resumo.link" />
  </g>
</svg>
